<?xml version="1.0" encoding="UTF-8" standalone="no"?>
<!DOCTYPE svg PUBLIC "-//W3C//DTD SVG 1.1//EN"
 "http://www.w3.org/Graphics/SVG/1.1/DTD/svg11.dtd">
<!-- Generated by graphviz version 2.50.0 (0)
 -->
<!-- Pages: 1 -->
<svg width="801pt" height="620pt"
 viewBox="0.00 0.00 800.93 620.00" xmlns="http://www.w3.org/2000/svg" xmlns:xlink="http://www.w3.org/1999/xlink">
<g id="graph0" class="graph" transform="scale(1 1) rotate(0) translate(4 616)">
<polygon fill="white" stroke="transparent" points="-4,4 -4,-616 796.93,-616 796.93,4 -4,4"/>
<!-- 95 -->
<g id="node1" class="node">
<title>95</title>
<ellipse fill="none" stroke="black" cx="396.46" cy="-90" rx="396.43" ry="18"/>
<text text-anchor="start" x="99.46" y="-86.3" font-family="Times,serif" font-size="14.00">org.apache.commons.collections.functors.InvokerTransformer: java.lang.Object transform(java.lang.Object)</text>
</g>
<!-- 152 -->
<g id="node4" class="node">
<title>152</title>
<ellipse fill="none" stroke="black" cx="396.46" cy="-18" rx="317.34" ry="18"/>
<text text-anchor="start" x="160.46" y="-14.3" font-family="Times,serif" font-size="14.00">java.lang.reflect.Method: java.lang.Object invoke(java.lang.Object,java.lang.Object[])</text>
</g>
<!-- 95&#45;&gt;152 -->
<g id="edge3" class="edge">
<title>95&#45;&gt;152</title>
<path fill="none" stroke="black" d="M396.46,-71.7C396.46,-63.98 396.46,-54.71 396.46,-46.11"/>
<polygon fill="black" stroke="black" points="399.96,-46.1 396.46,-36.1 392.96,-46.1 399.96,-46.1"/>
</g>
<!-- 164 -->
<g id="node2" class="node">
<title>164</title>
<ellipse fill="none" stroke="black" cx="396.46" cy="-378" rx="172.77" ry="18"/>
<text text-anchor="start" x="271.46" y="-374.3" font-family="Times,serif" font-size="14.00">java.util.HashMap: int hash(java.lang.Object)</text>
</g>
<!-- 123 -->
<g id="node5" class="node">
<title>123</title>
<ellipse fill="none" stroke="black" cx="396.46" cy="-306" rx="272.95" ry="18"/>
<text text-anchor="start" x="194.46" y="-302.3" font-family="Times,serif" font-size="14.00">org.apache.commons.collections.keyvalue.TiedMapEntry: int hashCode()</text>
</g>
<!-- 164&#45;&gt;123 -->
<g id="edge5" class="edge">
<title>164&#45;&gt;123</title>
<path fill="none" stroke="black" d="M396.46,-359.7C396.46,-351.98 396.46,-342.71 396.46,-334.11"/>
<polygon fill="black" stroke="black" points="399.96,-334.1 396.46,-324.1 392.96,-334.1 399.96,-334.1"/>
</g>
<!-- 46 -->
<g id="node3" class="node">
<title>46</title>
<ellipse fill="none" stroke="black" cx="396.46" cy="-522" rx="232.06" ry="18"/>
<text text-anchor="start" x="225.96" y="-518.3" font-family="Times,serif" font-size="14.00">java.util.HashSet: void readObject(java.io.ObjectInputStream)</text>
</g>
<!-- 47 -->
<g id="node9" class="node">
<title>47</title>
<ellipse fill="none" stroke="black" cx="396.46" cy="-450" rx="277.55" ry="18"/>
<text text-anchor="start" x="190.96" y="-446.3" font-family="Times,serif" font-size="14.00">java.util.HashMap: java.lang.Object put(java.lang.Object,java.lang.Object)</text>
</g>
<!-- 46&#45;&gt;47 -->
<g id="edge8" class="edge">
<title>46&#45;&gt;47</title>
<path fill="none" stroke="black" d="M396.46,-503.7C396.46,-495.98 396.46,-486.71 396.46,-478.11"/>
<polygon fill="black" stroke="black" points="399.96,-478.1 396.46,-468.1 392.96,-478.1 399.96,-478.1"/>
</g>
<!-- 89 -->
<g id="node8" class="node">
<title>89</title>
<ellipse fill="none" stroke="black" cx="396.46" cy="-234" rx="317.64" ry="18"/>
<text text-anchor="start" x="159.96" y="-230.3" font-family="Times,serif" font-size="14.00">org.apache.commons.collections.keyvalue.TiedMapEntry: java.lang.Object getValue()</text>
</g>
<!-- 123&#45;&gt;89 -->
<g id="edge7" class="edge">
<title>123&#45;&gt;89</title>
<path fill="none" stroke="black" d="M396.46,-287.7C396.46,-279.98 396.46,-270.71 396.46,-262.11"/>
<polygon fill="black" stroke="black" points="399.96,-262.1 396.46,-252.1 392.96,-262.1 399.96,-262.1"/>
</g>
<!-- 45 -->
<g id="node6" class="node">
<title>45</title>
<ellipse fill="none" stroke="black" cx="396.46" cy="-594" rx="57.69" ry="18"/>
<text text-anchor="start" x="359.96" y="-590.3" font-family="Times,serif" font-size="14.00">Start Method</text>
</g>
<!-- 45&#45;&gt;46 -->
<g id="edge1" class="edge">
<title>45&#45;&gt;46</title>
<path fill="none" stroke="black" d="M396.46,-575.7C396.46,-567.98 396.46,-558.71 396.46,-550.11"/>
<polygon fill="black" stroke="black" points="399.96,-550.1 396.46,-540.1 392.96,-550.1 399.96,-550.1"/>
</g>
<!-- 103 -->
<g id="node7" class="node">
<title>103</title>
<ellipse fill="none" stroke="black" cx="396.46" cy="-162" rx="321.94" ry="18"/>
<text text-anchor="start" x="156.96" y="-158.3" font-family="Times,serif" font-size="14.00">org.apache.commons.collections.map.LazyMap: java.lang.Object get(java.lang.Object)</text>
</g>
<!-- 103&#45;&gt;95 -->
<g id="edge2" class="edge">
<title>103&#45;&gt;95</title>
<path fill="none" stroke="black" d="M396.46,-143.7C396.46,-135.98 396.46,-126.71 396.46,-118.11"/>
<polygon fill="black" stroke="black" points="399.96,-118.1 396.46,-108.1 392.96,-118.1 399.96,-118.1"/>
</g>
<!-- 89&#45;&gt;103 -->
<g id="edge4" class="edge">
<title>89&#45;&gt;103</title>
<path fill="none" stroke="black" d="M396.46,-215.7C396.46,-207.98 396.46,-198.71 396.46,-190.11"/>
<polygon fill="black" stroke="black" points="399.96,-190.1 396.46,-180.1 392.96,-190.1 399.96,-190.1"/>
</g>
<!-- 47&#45;&gt;164 -->
<g id="edge6" class="edge">
<title>47&#45;&gt;164</title>
<path fill="none" stroke="black" d="M396.46,-431.7C396.46,-423.98 396.46,-414.71 396.46,-406.11"/>
<polygon fill="black" stroke="black" points="399.96,-406.1 396.46,-396.1 392.96,-406.1 399.96,-406.1"/>
</g>
</g>
</svg>
